<?xml version="1.0" standalone="no"?><!DOCTYPE svg PUBLIC "-//W3C//DTD SVG 1.1//EN" "http://www.w3.org/Graphics/SVG/1.1/DTD/svg11.dtd"><svg t="1762505073114" class="icon" viewBox="0 0 1024 1024" version="1.1" xmlns="http://www.w3.org/2000/svg" p-id="4776" xmlns:xlink="http://www.w3.org/1999/xlink" width="200" height="200"><path d="M531.34 332.43l201.86 95.29c6.45 3.01 9.23 10.68 6.22 17.13a12.947 12.947 0 0 1-6.17 6.2l-4.69 2.24-0.36 86.2c-0.05 7.17-5.9 12.93-13.06 12.89h-0.01c-7.08-0.01-12.84-5.7-12.95-12.78v-0.22l0.31-73.66-170.29 81.21a45.848 45.848 0 0 1-39.35 0.05l-202.43-95.95c-6.44-3.02-9.22-10.69-6.2-17.14 1.28-2.73 3.48-4.92 6.21-6.2l201.79-95.25a45.83 45.83 0 0 1 39.12-0.01z" fill="#666666" opacity=".5" p-id="4777"></path><path d="M678.19 498.54v114.31c0 49.78-75.3 83.1-166 83.1-89.79 0-164.49-32.66-165.98-81.61l-0.02-1.49v-114l143.19 69.67c14.36 7 31.14 7.06 45.55 0.15l0.44-0.21 142.82-69.92zM531.71 332.43l201.86 95.29c6.45 3.01 9.23 10.68 6.22 17.13a12.947 12.947 0 0 1-6.17 6.2l-4.69 2.24-26.08 12.43-170.28 81.21a45.848 45.848 0 0 1-39.35 0.05l-202.43-95.95c-6.44-3.02-9.22-10.69-6.2-17.14 1.28-2.73 3.48-4.92 6.21-6.2l201.79-95.25a45.83 45.83 0 0 1 39.12-0.01z" fill="#666666" p-id="4778"></path></svg>